Coordinates
version=1
nRows=8
nColumns=36
inDegrees=yes

Units are S.I. units (second, meters, Newtons, ...)
If the header above contains a line with 'inDegrees', this indicates whether rotational values are in degrees (yes) or radians (no).

endheader
time	pelvis_tilt	pelvis_list	pelvis_rotation	pelvis_tx	pelvis_ty	pelvis_tz	hip_flexion_r	hip_adduction_r	hip_rotation_r	knee_angle_r	knee_angle_r_beta	ankle_angle_r	subtalar_angle_r	mtp_angle_r	hip_flexion_l	hip_adduction_l	hip_rotation_l	knee_angle_l	knee_angle_l_beta	ankle_angle_l	subtalar_angle_l	mtp_angle_l	lumbar_extension	lumbar_bending	lumbar_rotation	arm_flex_r	arm_add_r	arm_rot_r	elbow_flex_r	pro_sup_r	arm_flex_l	arm_add_l	arm_rot_l	elbow_flex_l	pro_sup_l
      1.38000000	    -15.61013077	      0.24827967	      0.76297594	     -0.48068904	      1.15969176	     -0.57729308	     30.07385184	     -7.04622988	     -9.65246399	      7.61863380	      0.13297024	    -27.77898736	     -2.15670874	     -7.22697921	     33.56213848	     -6.02988937	     -4.50052426	     12.91553427	      0.22541860	    -30.83784922	     -1.34622337	     -7.22697921	     -8.15328097	      3.08920644	     -3.55457024	     10.13593892	    -23.35442030	      1.12403896	     57.13430829	    107.22903206	      9.93839593	    -28.02346196	     -3.28083558	     48.86556100	    105.15607328
      1.39000000	    -15.51160524	      0.25677746	      0.88688415	     -0.46963787	      1.14009368	     -0.57771581	     30.55337942	     -7.26231926	    -10.12423829	      6.94298838	      0.12117801	    -27.59731411	     -1.75720961	     -7.24004908	     34.27912461	     -6.08969360	     -4.95739804	     12.38323771	      0.21612827	    -31.51016377	     -1.12643819	     -7.24004908	     -9.08586612	      3.11652174	     -3.59606714	      6.26965599	    -22.85044447	     -1.28758695	     56.87883720	    107.17780964	      5.98477103	    -26.85727799	     -5.81825686	     49.83474464	    104.97374560
      1.40000000	    -15.42719282	      0.17303917	      1.06839094	     -0.45878913	      1.11935970	     -0.57827194	     31.13492208	     -7.42845654	    -10.42471700	      6.67797039	      0.11655257	    -27.63091470	     -1.76345238	     -7.25202369	     35.09171659	     -6.17508399	     -5.21692969	     12.08155943	      0.21086299	    -32.31309096	     -1.25798843	     -7.25202369	     -9.91567410	      3.26150915	     -3.70805462	      2.76170110	    -22.39805139	     -2.85049826	     55.79921953	    107.21116730	      2.32595387	    -25.76378502	     -7.46890271	     50.06005560	    104.73257415
      1.41000000	    -15.24266598	      0.05977924	      1.24305255	     -0.44805307	      1.09761600	     -0.57879530	     31.68726618	     -7.54852431	    -10.59173666	      6.78006619	      0.11833448	    -27.76647954	     -2.28237380	     -7.27696739	     35.83968962	     -6.26419769	     -5.23364778	     12.06561020	      0.21058462	    -32.87828772	     -1.73499814	     -7.27696739	    -10.86082219	      3.42303204	     -4.00398179	     -0.27887512	    -22.00385113	     -3.40152707	     54.03942494	    108.23554537	     -1.33434305	    -24.64981254	     -9.04915491	     50.21872115	    104.71971074
      1.42000000	    -14.96118086	     -0.03908398	      1.38752452	     -0.43731541	      1.07488688	     -0.57917367	     32.24997712	     -7.70868932	    -10.62308615	      7.31791486	      0.12772171	    -27.66355579	     -2.49626650	     -7.28424316	     36.57605496	     -6.39326453	     -5.40298724	     12.42605439	      0.21687556	    -33.06221276	     -1.95264810	     -7.28424316	    -11.81627334	      3.52514851	     -3.94092970	     -3.40424863	    -21.49133303	     -4.05887088	     51.91145587	    107.74625926	     -4.30685484	    -23.65036537	     -9.03627896	     49.65971033	    104.29479196
      1.43000000	    -14.58626377	     -0.00226493	      1.38828411	     -0.42674768	      1.05115818	     -0.57945744	     32.84557958	     -7.94444241	     -9.98042232	      8.21077020	      0.14330497	    -27.60904205	     -2.94017110	     -7.29665382	     37.17886617	     -6.42306690	     -5.46133224	     12.96056268	      0.22620449	    -33.47602379	     -3.11479296	     -7.29665382	    -12.88662445	      3.45797965	     -3.77405936	     -6.45747946	    -20.61234877	     -6.17998185	     50.31288502	    107.97383401	     -7.22191664	    -22.44828567	     -9.80641307	     48.96877771	    104.73878648
      1.44000000	    -14.32536000	      0.10937358	      1.24937384	     -0.41629578	      1.02600933	     -0.57956524	     33.80656737	     -8.21781103	     -9.15626812	      9.75021390	      0.17017334	    -27.04027421	     -2.89498817	     -7.30544823	     38.08473757	     -6.55733771	     -5.92856893	     14.10978530	      0.24626221	    -33.41576203	     -3.54861574	     -7.30544823	    -13.73937222	      3.22431661	     -3.44139181	     -9.38697207	    -19.91388830	     -7.50892633	     48.60554507	    106.83442324	     -9.91435988	    -21.34920760	    -10.24325723	     47.94807967	    103.98664962
      1.45000000	    -14.05293827	      0.28622932	      1.05785868	     -0.40602089	      0.99957461	     -0.57957860	     34.90157404	     -8.47606904	     -7.99262650	     11.65860704	      0.20348108	    -26.44042377	     -2.94555900	     -7.31423375	     38.97160909	     -6.61755546	     -5.94007791	     15.41584173	      0.26905720	    -33.41029659	     -4.04214464	     -7.31423375	    -14.58869290	      2.97170306	     -3.10094835	    -12.27956594	    -19.11249308	     -8.71171339	     47.05691647	    105.60808308	    -12.50428804	    -20.15765946	    -10.77888229	     46.79930829	    103.02776836
